<svg width="16" height="16" viewBox="0 0 16 16" fill="currentColor" xmlns="http://www.w3.org/2000/svg">
    <path d="M7.14645 7.29289C6.75592 7.68342 6.75592 8.31658 7.14645 8.70711L11.2197 12.7803C11.5126 13.0732 11.9874 13.0732 12.2803 12.7803C12.5732 12.4874 12.5732 12.0126 12.2803 11.7197L8.56066 8L12.2803 4.28033C12.5732 3.98744 12.5732 3.51256 12.2803 3.21967C11.9874 2.92678 11.5126 2.92678 11.2197 3.21967L7.14645 7.29289Z" />
    <path d="M5 3.25C4.58579 3.25 4.25 3.58579 4.25 4V12C4.25 12.4142 4.58579 12.75 5 12.75C5.41421 12.75 5.75 12.4142 5.75 12V4C5.75 3.58579 5.41421 3.25 5 3.25Z" />
</svg>
