<svg width="16" height="16" viewBox="0 0 16 16" fill="currentColor" xmlns="http://www.w3.org/2000/svg">
    <path d="M8.60355 7.29289C8.99408 7.68342 8.99408 8.31658 8.60355 8.70711L4.53033 12.7803C4.23744 13.0732 3.76256 13.0732 3.46967 12.7803C3.17678 12.4874 3.17678 12.0126 3.46967 11.7197L7.18934 8L3.46967 4.28033C3.17678 3.98744 3.17678 3.51256 3.46967 3.21967C3.76256 2.92678 4.23744 2.92678 4.53033 3.21967L8.60355 7.29289Z" />
    <path d="M11.25 3.25C11.6642 3.25 12 3.58579 12 4V12C12 12.4142 11.6642 12.75 11.25 12.75C10.8358 12.75 10.5 12.4142 10.5 12V4C10.5 3.58579 10.8358 3.25 11.25 3.25Z" />
</svg>
