<svg width="16" height="16" viewBox="0 0 16 16" fill="currentColor" xmlns="http://www.w3.org/2000/svg">
<path fill-rule="evenodd" clip-rule="evenodd" d="M11.0354 12.096C9.92679 12.975 8.5247 13.5 7 13.5C3.41015 13.5 0.5 10.5899 0.5 7C0.5 3.41015 3.41015 0.5 7 0.5C10.5899 0.5 13.5 3.41015 13.5 7C13.5 8.52468 12.975 9.92675 12.096 11.0353L15.0303 13.9696C15.3232 14.2625 15.3232 14.7374 15.0303 15.0303C14.7374 15.3232 14.2625 15.3232 13.9696 15.0303L11.0354 12.096ZM12 7C12 9.76142 9.76142 12 7 12C4.23858 12 2 9.76142 2 7C2 4.23858 4.23858 2 7 2C9.76142 2 12 4.23858 12 7Z" />
</svg>
